<svg width="40" height="40" viewBox="0 0 40 40" fill="none" xmlns="http://www.w3.org/2000/svg">
<g clip-path="url(#clip0_266_101)">
<path d="M20 25.3334C22.9455 25.3334 25.3333 22.9455 25.3333 20C25.3333 17.0545 22.9455 14.6667 20 14.6667C17.0544 14.6667 14.6666 17.0545 14.6666 20C14.6666 22.9455 17.0544 25.3334 20 25.3334Z" fill="#111111"/>
<path d="M15 3.33331L11.95 6.66665H6.66671C4.83337 6.66665 3.33337 8.16665 3.33337 9.99998V30C3.33337 31.8333 4.83337 33.3333 6.66671 33.3333H33.3334C35.1667 33.3333 36.6667 31.8333 36.6667 30V9.99998C36.6667 8.16665 35.1667 6.66665 33.3334 6.66665H28.05L25 3.33331H15ZM20 28.3333C15.4 28.3333 11.6667 24.6 11.6667 20C11.6667 15.4 15.4 11.6666 20 11.6666C24.6 11.6666 28.3334 15.4 28.3334 20C28.3334 24.6 24.6 28.3333 20 28.3333Z" fill="#111111"/>
</g>
<defs>
<clipPath id="clip0_266_101">
<rect width="40" height="40" fill="white"/>
</clipPath>
</defs>
</svg>
